<svg width="53" height="53" viewBox="0 0 53 53" fill="none" xmlns="http://www.w3.org/2000/svg">
<rect x="1.09998" y="1" width="51" height="51" rx="9.5" stroke="white"/>
<g clip-path="url(#clip0_3158_125)">
<path d="M19.9331 46.5001C23.6131 46.5001 26.5998 43.5134 26.5998 39.8334V33.1667H19.9331C16.2531 33.1667 13.2665 36.1534 13.2665 39.8334C13.2665 43.5134 16.2531 46.5001 19.9331 46.5001Z" fill="white"/>
<path d="M13.2665 26.4999C13.2665 22.8199 16.2531 19.8333 19.9331 19.8333H26.5998V33.1666H19.9331C16.2531 33.1666 13.2665 30.1799 13.2665 26.4999Z" fill="white"/>
<path d="M13.2665 13.1667C13.2665 9.48667 16.2531 6.5 19.9331 6.5H26.5998V19.8333H19.9331C16.2531 19.8333 13.2665 16.8467 13.2665 13.1667Z" fill="white"/>
<path d="M26.5998 6.5H33.2665C36.9465 6.5 39.9331 9.48667 39.9331 13.1667C39.9331 16.8467 36.9465 19.8333 33.2665 19.8333H26.5998V6.5Z" fill="white"/>
<path d="M39.9331 26.4999C39.9331 30.1799 36.9465 33.1666 33.2665 33.1666C29.5865 33.1666 26.5998 30.1799 26.5998 26.4999C26.5998 22.8199 29.5865 19.8333 33.2665 19.8333C36.9465 19.8333 39.9331 22.8199 39.9331 26.4999Z" fill="white"/>
</g>
<defs>
<clipPath id="clip0_3158_125">
<rect width="40" height="40" fill="white" transform="translate(6.59998 6.5)"/>
</clipPath>
</defs>
</svg>
