<svg width="53" height="53" viewBox="0 0 53 53" fill="none" xmlns="http://www.w3.org/2000/svg">
<rect x="0.700012" y="1" width="51" height="51" rx="9.5" stroke="white"/>
<path d="M42.3916 7.50511C36.5472 7.48871 14.9908 7.51631 10.0084 7.50511C8.45801 7.50511 7.20001 8.72471 7.20001 10.2267V42.7791C7.20001 44.2815 8.45801 45.4999 10.0084 45.4999H42.3916C43.9428 45.4999 45.2 44.2815 45.2 42.7787V10.2267C45.2 8.72471 43.9428 7.50511 42.3916 7.50511Z" fill="white"/>
<path d="M27.5812 39.302C27.5812 39.302 27.5812 29.7508 27.5812 29.7504C27.5256 27.9952 28.5748 26.3572 30.686 26.2836C32.7432 26.2836 33.5664 27.852 33.5664 30.1516V39.3016H39.252V29.494C39.252 24.24 36.4472 21.7952 32.706 21.7952C29.6388 21.7952 28.2916 23.5092 27.5432 24.6768L27.5812 22.1968H21.8956C21.9696 23.8016 21.8952 39.302 21.8952 39.302H27.5812ZM18.748 31.8844V22.1964H13.0616V39.3016H18.7484C18.7472 37.5056 18.7504 33.6552 18.748 31.8844ZM15.906 19.8616C17.8884 19.8616 19.1228 18.548 19.1228 16.9068C19.1064 12.948 12.7212 12.992 12.7264 16.9064C12.722 18.5604 13.9904 19.882 15.906 19.8616Z" fill="black"/>
</svg>
