<svg width="53" height="53" viewBox="0 0 53 53" fill="none" xmlns="http://www.w3.org/2000/svg">
<rect x="0.899994" y="1" width="51" height="51" rx="9.5" stroke="white"/>
<path d="M26.3905 9.83325C23.0942 9.83325 19.8718 10.8107 17.131 12.6421C14.3902 14.4734 12.254 17.0764 10.9925 20.1219C9.73107 23.1673 9.40101 26.5184 10.0441 29.7514C10.6872 32.9844 12.2745 35.9542 14.6054 38.285C16.9363 40.6159 19.906 42.2033 23.139 42.8463C26.372 43.4894 29.7231 43.1594 32.7686 41.8979C35.814 40.6365 38.417 38.5002 40.2483 35.7594C42.0797 33.0186 43.0572 29.7963 43.0572 26.4999C43.0574 24.3112 42.6264 22.1438 41.7889 20.1216C40.9514 18.0995 39.7237 16.2621 38.176 14.7144C36.6284 13.1667 34.791 11.9391 32.7688 11.1016C30.7466 10.264 28.5793 9.83307 26.3905 9.83325ZM31.6897 35.0874C31.6273 35.2429 31.5324 35.3833 31.4113 35.4992C31.2902 35.6151 31.1458 35.7037 30.9876 35.7592C30.8295 35.8147 30.6613 35.8357 30.4944 35.8209C30.3274 35.806 30.1656 35.7557 30.0197 35.6732L25.4953 32.1576L22.5914 34.8366C22.524 34.8864 22.4452 34.9184 22.3622 34.9297C22.2792 34.9411 22.1947 34.9314 22.1164 34.9015L22.6731 29.9207L22.6909 29.9349L22.7023 29.8365C22.7023 29.8365 30.8439 22.424 31.1756 22.1082C31.5114 21.7932 31.4006 21.7249 31.4006 21.7249C31.4197 21.3406 30.7981 21.7249 30.7981 21.7249L20.0105 28.6649L15.518 27.1349C15.518 27.1349 14.828 26.8874 14.763 26.3433C14.6947 25.8033 15.5405 25.5099 15.5405 25.5099L33.4022 18.4141C33.4022 18.4141 34.8705 17.7599 34.8705 18.8433L31.6897 35.0874Z" fill="white"/>
</svg>
