<svg width="53" height="53" viewBox="0 0 53 53" fill="none" xmlns="http://www.w3.org/2000/svg">
<rect x="1.29999" y="1" width="51" height="51" rx="9.5" stroke="white"/>
<path d="M45.3684 14.9489C44.0016 15.5561 42.5332 15.9645 40.992 16.1489C42.566 15.2061 43.7728 13.7137 44.3412 11.9341C42.87 12.8069 41.2392 13.4409 39.502 13.7837C38.1124 12.3025 36.1328 11.3769 33.9416 11.3769C29.0984 11.3121 25.3748 16.0437 26.5208 20.7309C20.1892 20.4137 14.576 17.3801 10.8168 12.7693C8.76519 16.1149 9.92999 20.8993 13.1752 22.9417C11.9268 22.9017 10.7512 22.5589 9.72439 21.9889C9.67679 25.7109 12.3172 28.8533 15.836 29.5545C14.7548 29.8561 13.5092 29.9033 12.3952 29.6857C13.3652 32.7121 16.1788 34.9161 19.5124 34.9773C16.4984 37.3857 12.2788 38.6413 8.23199 38.1325C24.5048 48.1473 42.494 35.0265 41.5652 18.8921C43.0544 17.8169 44.3472 16.4757 45.3684 14.9489Z" fill="white"/>
</svg>
